<?xml version="1.0" encoding="UTF-8"?>
<svg id="Layer_1" xmlns="http://www.w3.org/2000/svg" version="1.1" viewBox="0 0 420.1 271.1">
  <!-- Generator: Adobe Illustrator 29.0.1, SVG Export Plug-In . SVG Version: 2.1.0 Build 192)  -->
  <defs>
    <style>
      .st0 {
        fill: #231f20;
      }
    </style>
  </defs>
  <circle class="st0" cx="156.5" cy="136.7" r="35.4" transform="translate(-50.9 150.7) rotate(-45)"/>
  <circle class="st0" cx="268" cy="136.7" r="35.4" transform="translate(-24.2 65.2) rotate(-13.3)"/>
  <path class="st0" d="M141,209.4h140.2c2.7,0,4.9-2.2,4.9-4.9s-2.2-4.9-4.9-4.9h-140.2c-2.7,0-4.9,2.2-4.9,4.9s2.2,4.9,4.9,4.9Z"/>
  <path class="st0" d="M171.3,77.8h84c4.7,0,9.3-2.1,12.6-5.8l26.5-29.9-4.2-2.8c-22.9-15.4-49.9-23.6-78-23.6s-53.2,7.6-75.6,22l-4.2,2.7,25.9,31.1c3.3,4,8,6.2,13,6.2ZM212.2,24.5c24.6,0,48.3,6.7,68.9,19.4l-19.8,22.3c-1.6,1.8-3.8,2.9-6.1,2.9h-84c-2.3,0-4.6-1.1-6.3-3.1l-19.5-23.4c20-11.8,43-18,66.6-18Z"/>
  <path class="st0" d="M388.8,106.7l-33.1-13.3c-.4-.1-.7-.3-1.1-.4l-6.8-3.1c-2-25.8-21.8-46.1-45.9-46.1h-7.1l-7.8,8.8h14.9c20.5,0,37.3,18.6,37.3,41.5v107.2c0,22.9-16.7,41.5-37.3,41.5H122.5c-20.5,0-37.3-18.6-37.3-41.5v-107.2c0-22.9,16.7-41.5,37.3-41.5h18.2l-7.3-8.8h-10.9c-24,0-43.8,20.2-45.8,45.9l-7,3.2c-.4.1-.7.2-1.1.4l-33.1,13.3c-11.3,4.5-18.6,16.8-17.6,29.9l2.5,33.7c.8,10.9,7,20.3,16.2,24.7l31.5,14.8,11.4,9.2c6.5,19.1,23.4,32.7,43.1,32.7h179.5c19.8,0,36.7-13.7,43.2-33l11.1-9,31.5-14.8c9.2-4.3,15.4-13.8,16.2-24.7l2.5-33.7c1-13.1-6.3-25.4-17.6-29.9ZM62.4,194v-88.1l10.5-4.7c1.2-.4,2.4-.6,3.6-.7v100.9c0,.9,0,1.8,0,2.7l-3.9-1.8-10.2-8.3ZM29,169.7l-2.5-33.7c-.7-9.3,4.3-18,12.1-21.1l15-6v84.5l-13.4-6.3c-6.4-3-10.7-9.6-11.2-17.4ZM361.8,194l-10.2,8.3-3.6,1.7c0-.9,0-1.7,0-2.6v-100.9c1.1.1,2.2.4,3.3.7l10.5,4.7v88.1ZM397.7,136l-2.5,33.7c-.6,7.7-4.9,14.4-11.2,17.4l-13.4,6.3v-84.5l15,6c7.8,3.1,12.8,11.8,12.1,21.1Z"/>
</svg>