<?xml version="1.0" encoding="UTF-8"?>
<svg id="Layer_1" xmlns="http://www.w3.org/2000/svg" version="1.1" viewBox="0 0 703.2 703.2">
  <!-- Generator: Adobe Illustrator 29.0.1, SVG Export Plug-In . SVG Version: 2.1.0 Build 192)  -->
  <defs>
    <style>
      .st0 {
        fill: #fff;
      }
    </style>
  </defs>
  <path class="st0" d="M351.6,703.2C157.7,703.2,0,545.5,0,351.6S157.7,0,351.6,0s351.6,157.7,351.6,351.6-157.7,351.6-351.6,351.6ZM351.6,34.4c-174.9,0-317.2,142.3-317.2,317.2s142.3,317.2,317.2,317.2,317.2-142.3,317.2-317.2S526.5,34.4,351.6,34.4Z"/>
  <path class="st0" d="M232.8,482.7c-6.6-8.5-5-20.7,3.5-27.3l111.8-86.6v-204c0-10.7,8.7-19.4,19.5-19.4s19.4,8.7,19.4,19.4v213.3c0,.4,0,.7,0,1.1-.1,2.7-.8,5.3-2,7.7-1.1,2.3-2.7,4.5-4.8,6.3-.3.2-.6.5-.9.7l-119.1,92.3c-8.6,6.6-20.8,5-27.3-3.5Z"/>
</svg>